{
  "accessors": [
    {
      "bufferView": 2,
      "componentType": 5126,
      "count": 90,
      "max": [1.3597477674484253, 4.936172008514404, 1.0818078517913818],
      "min": [-1.6157766580581665, -1.1440410614013672, -1.278367280960083],
      "type": "VEC3"
    },
    {
      "bufferView": 2,
      "byteOffset": 1080,
      "componentType": 5126,
      "count": 90,
      "max": [0.9899157285690308, 0.8390204310417175, 0.9863917231559753],
      "min": [-0.9818878769874573, -0.9555047750473022, -0.9621195793151855],
      "type": "VEC3"
    },
    {
      "bufferView": 1,
      "componentType": 5126,
      "count": 90,
      "max": [0.875, 1.0],
      "min": [0.125, 0.0],
      "type": "VEC2"
    },
    {
      "bufferView": 0,
      "componentType": 5125,
      "count": 132,
      "type": "SCALAR"
    }
  ],
  "asset": {
    "extras": {
      "author": "Avgust9 (https://sketchfab.com/Avgust9)",
      "license": "CC-BY-4.0 (http://creativecommons.org/licenses/by/4.0/)",
      "source": "https://sketchfab.com/3d-models/stylized-crystal-700b552e2a1c4080a5582e23ca379cd2",
      "title": "Stylized Crystal"
    },
    "generator": "Sketchfab-12.65.0",
    "version": "2.0"
  },
  "bufferViews": [
    {
      "buffer": 0,
      "byteLength": 528,
      "name": "floatBufferViews",
      "target": 34963
    },
    {
      "buffer": 0,
      "byteLength": 720,
      "byteOffset": 528,
      "byteStride": 8,
      "name": "floatBufferViews",
      "target": 34962
    },
    {
      "buffer": 0,
      "byteLength": 2160,
      "byteOffset": 1248,
      "byteStride": 12,
      "name": "floatBufferViews",
      "target": 34962
    }
  ],
  "buffers": [
    {
      "byteLength": 3408,
      "uri": "scene.bin"
    }
  ],
  "extensionsUsed": ["KHR_materials_unlit"],
  "images": [
    {
      "uri": "textures/Crystal_baseColor.png"
    }
  ],
  "materials": [
    {
      "doubleSided": true,
      "extensions": {
        "KHR_materials_unlit": {}
      },
      "name": "Crystal",
      "pbrMetallicRoughness": {
        "baseColorTexture": {
          "index": 0
        },
        "metallicFactor": 0.0
      }
    }
  ],
  "meshes": [
    {
      "name": "Object_0",
      "primitives": [
        {
          "attributes": {
            "NORMAL": 1,
            "POSITION": 0,
            "TEXCOORD_0": 2
          },
          "indices": 3,
          "material": 0,
          "mode": 4
        }
      ]
    }
  ],
  "nodes": [
    {
      "children": [1],
      "matrix": [
        1.0, 0.0, 0.0, 0.0, 0.0, 2.220446049250313e-16, -1.0, 0.0, 0.0, 1.0, 2.220446049250313e-16, 0.0, 0.0, 0.0, 0.0,
        1.0
      ],
      "name": "Sketchfab_model"
    },
    {
      "children": [2],
      "name": "root"
    },
    {
      "children": [3],
      "matrix": [
        1.0, 0.0, 0.0, 0.0, 0.0, 2.220446049250313e-16, 1.0, 0.0, 0.0, -1.0, 2.220446049250313e-16, 0.0, 0.0, 0.0, 0.0,
        1.0
      ],
      "name": "GLTF_SceneRootNode"
    },
    {
      "children": [4],
      "matrix": [
        0.6716747283935547, 0.0, 0.0, 0.0, 0.0, 0.6716747283935547, 0.0, 0.0, 0.0, 0.0, 0.6716747283935547, 0.0, 0.0,
        0.9545300602912903, 0.0, 1.0
      ],
      "name": "Cube_0"
    },
    {
      "mesh": 0,
      "name": "Object_4"
    }
  ],
  "samplers": [
    {
      "magFilter": 9729,
      "minFilter": 9987,
      "wrapS": 10497,
      "wrapT": 10497
    }
  ],
  "scene": 0,
  "scenes": [
    {
      "name": "Sketchfab_Scene",
      "nodes": [0]
    }
  ],
  "textures": [
    {
      "sampler": 0,
      "source": 0
    }
  ]
}
