<svg xmlns="http://www.w3.org/2000/svg" width="512" height="512" viewBox="0 0 46 60" style="enable-background:new 0 0 512 512" xml:space="preserve"><g fill-rule="nonzero" xmlns="http://www.w3.org/2000/svg" fill="none"><path d="M8.91 28.19A2.316 2.316 0 0 0 8 28a2.477 2.477 0 0 0-1.62.63 5.49 5.49 0 0 1-1.28-4.64c.02-.132.05-.262.09-.39a1.915 1.915 0 0 1 2.82-1.4c.025 2.028.328 4.044.9 5.99zM30.62 46.81C29.92 47.98 27.98 50 23 50s-6.92-2.02-7.62-3.19c2.94-1.44 3.14-4.77 2.94-6.89l.01-.01a10.549 10.549 0 0 0 9.34 0l.01.01c-.2 2.12 0 5.45 2.94 6.89z" fill="#783e22" data-original="#783e22"/><path d="M35.8 48.45c-.8 2.1-.8 5.69-.8 7.55v3H11v-3c0-1.86 0-5.45-.8-7.55 1.71-.5 3.39-.9 4.77-1.45.14-.06.28-.12.41-.19.7 1.17 2.64 3.19 7.62 3.19s6.92-2.02 7.62-3.19c.13.07.27.13.41.19 1.38.55 3.06.95 4.77 1.45z" fill="#ffdc00" data-original="#ffdc00"/><path d="M31.03 47c-.14-.06-.28-.12-.41-.19a5.031 5.031 0 0 1-.641.839c.9.265 1.852.518 2.821.8C32 50.55 32 54.14 32 56v3h3v-3c0-1.86 0-5.45.8-7.55-1.71-.5-3.39-.9-4.77-1.45z" fill="#fec108" data-original="#fec108"/><path d="M11 56v3H1c0-7.25 4.7-9.24 9.2-10.55.8 2.1.8 5.69.8 7.55zM45 59H35v-3c0-1.86 0-5.45.8-7.55C40.3 49.76 45 51.75 45 59z" fill="sienna" data-original="#a0522d"/><path d="M35.8 48.45c-.112.302-.205.61-.279.923C39.012 50.788 42 53.221 42 59h3c0-7.25-4.7-9.24-9.2-10.55zM39.62 28.63A2.477 2.477 0 0 0 38 28a2.316 2.316 0 0 0-.91.19c.572-1.946.875-3.962.9-5.99a1.915 1.915 0 0 1 2.82 1.4c.04.128.07.258.09.39a5.49 5.49 0 0 1-1.28 4.64z" fill="#783e22" data-original="#783e22"/><path d="M38 21.94V22a1.34 1.34 0 0 1-.01.2 22.206 22.206 0 0 1-.9 5.99 20.566 20.566 0 0 1-2.01 4.71A16 16 0 0 1 33 35.71a18.913 18.913 0 0 1-5.33 4.2 10.549 10.549 0 0 1-9.34 0 18.913 18.913 0 0 1-5.33-4.2 16 16 0 0 1-2.08-2.81 20.566 20.566 0 0 1-2.01-4.71 22.206 22.206 0 0 1-.9-5.99A1.34 1.34 0 0 1 8 22v-.06c.05-3.12 4.33-6.83 10-8.3a19.851 19.851 0 0 1 10 0c5.67 1.47 9.95 5.18 10 8.3z" fill="sienna" data-original="#a0522d"/><path d="M28 13.64a20.381 20.381 0 0 0-5-.64c-.506 0-1 .026-1.5.064a20.94 20.94 0 0 1 3.5.576c5.67 1.47 9.95 5.18 10 8.3V22a1.34 1.34 0 0 1-.01.2 22.206 22.206 0 0 1-.9 5.99 20.566 20.566 0 0 1-2.01 4.71A16 16 0 0 1 30 35.71a18.913 18.913 0 0 1-5.33 4.2c-.999.49-2.069.819-3.17.974.497.074.998.113 1.5.116 1.62.005 3.22-.369 4.67-1.09a18.913 18.913 0 0 0 5.33-4.2 16 16 0 0 0 2.08-2.81 20.566 20.566 0 0 0 2.01-4.71c.572-1.946.875-3.962.9-5.99A1.34 1.34 0 0 0 38 22v-.06c-.05-3.12-4.33-6.83-10-8.3z" fill="#783e22" data-original="#783e22"/><path d="M44 21a3 3 0 0 1-3 3 .34.34 0 0 1-.1-.01 2.744 2.744 0 0 0-.09-.39 1.915 1.915 0 0 0-2.82-1.4A1.34 1.34 0 0 0 38 22v-.06c-.02-1.87-.85-10.9-10-13.33A19.222 19.222 0 0 0 23 8a19.222 19.222 0 0 0-5 .61C8.85 11.04 8.02 20.07 8 21.94V22a1.34 1.34 0 0 0 .01.2 1.915 1.915 0 0 0-2.82 1.4c-.04.128-.07.258-.09.39A.34.34 0 0 1 5 24a3 3 0 0 1-1.65-5.5 2.987 2.987 0 0 1 1.45-5.48A2.986 2.986 0 0 1 7 8c.06 0 .13.02.19.02A2.887 2.887 0 0 1 7 7a2.994 2.994 0 0 1 4.12-2.78A2.974 2.974 0 0 1 14 2c.517.002 1.024.14 1.47.4a2.988 2.988 0 0 1 5.03-.05 2.99 2.99 0 0 1 5 0 2.988 2.988 0 0 1 5.03.05c.446-.26.953-.398 1.47-.4a2.974 2.974 0 0 1 2.88 2.22A2.994 2.994 0 0 1 39 7a2.887 2.887 0 0 1-.19 1.02c.06 0 .13-.02.19-.02a2.986 2.986 0 0 1 2.2 5.02 2.987 2.987 0 0 1 1.45 5.48A3.009 3.009 0 0 1 44 21z" fill="#607d8b" data-original="#607d8b"/><path d="M22.5 2.35c.364-.534.89-.937 1.5-1.15a2.8 2.8 0 0 0-2.5.22c.4.23.741.548 1 .93zM17.5 2.35c.364-.534.89-.937 1.5-1.15a2.824 2.824 0 0 0-2.5.217c.4.231.741.55 1 .933zM42.65 18.5a2.987 2.987 0 0 0-1.45-5.48A2.986 2.986 0 0 0 39 8c-.06 0-.13.02-.19.02.124-.326.189-.671.19-1.02a2.994 2.994 0 0 0-4.12-2.78A2.974 2.974 0 0 0 32 2a2.942 2.942 0 0 0-1.47.4 2.962 2.962 0 0 0-4.025-.987c.416.242.767.58 1.025.987.446-.26.953-.398 1.47-.4a2.974 2.974 0 0 1 2.88 2.22A2.994 2.994 0 0 1 36 7a2.887 2.887 0 0 1-.19 1.02c.06 0 .13-.02.19-.02a2.986 2.986 0 0 1 2.2 5.02 2.987 2.987 0 0 1 1.45 5.48A3.009 3.009 0 0 1 41 21c0 .633-.203 1.249-.578 1.759a2.8 2.8 0 0 1 .388.841c.04.128.07.258.09.39a.34.34 0 0 0 .1.01 3 3 0 0 0 1.65-5.5zM20 8a19.222 19.222 0 0 0-5 .61C5.85 11.04 5.02 20.07 5 21.94V22a1.34 1.34 0 0 0 .01.2 1.922 1.922 0 0 0-2.432.559A2.986 2.986 0 0 0 5 24a.34.34 0 0 0 .1-.01c.02-.132.05-.262.09-.39a1.915 1.915 0 0 1 2.82-1.4A1.34 1.34 0 0 1 8 22v-.06c.02-1.87.85-10.9 10-13.33 1.146-.3 2.318-.487 3.5-.558A22.646 22.646 0 0 0 20 8z" fill="#37474f" data-original="#37474f"/><path d="M38 21.94c-.05-3.12-4.33-6.83-10-8.3a19.851 19.851 0 0 0-10 0c-5.67 1.47-9.95 5.18-10 8.3.02-1.87.85-10.9 10-13.33A19.222 19.222 0 0 1 23 8a19.222 19.222 0 0 1 5 .61c9.15 2.43 9.98 11.46 10 13.33z" fill="#ef314c" data-original="#ef314c"/><circle cx="16" cy="25" fill="#00bcd4" r="2" data-original="#00bcd4"/><circle cx="30" cy="25" fill="#00bcd4" r="2" data-original="#00bcd4"/><path d="M10.92 32.9C10.62 34.68 9.43 36 8 36c-1.66 0-3-1.79-3-4a4.453 4.453 0 0 1 1.38-3.37A2.477 2.477 0 0 1 8 28c.313.001.623.066.91.19a20.566 20.566 0 0 0 2.01 4.71zM41 32c0 2.21-1.34 4-3 4-1.43 0-2.62-1.32-2.92-3.1a20.566 20.566 0 0 0 2.01-4.71c.287-.124.597-.189.91-.19a2.477 2.477 0 0 1 1.62.63A4.453 4.453 0 0 1 41 32z" fill="#ffeb3a" data-original="#ffeb3a"/><g fill="#000"><path d="M34.65 47.083a32.69 32.69 0 0 1-3.245-1.012c-2.429-.969-2.869-3.443-2.76-5.536a20.937 20.937 0 0 0 5.083-4.135c.395-.423.767-.867 1.114-1.331A3.749 3.749 0 0 0 38 37c2.243 0 4-2.2 4-5a5.744 5.744 0 0 0-1.084-3.428A6.584 6.584 0 0 0 42 24.86a3.98 3.98 0 0 0 2.121-6.36 3.974 3.974 0 0 0-1.379-6.086A4.007 4.007 0 0 0 40 7.126V7a4 4 0 0 0-4.53-3.964A3.984 3.984 0 0 0 32 1c-.396 0-.79.061-1.168.181A3.982 3.982 0 0 0 25.5.884a4.108 4.108 0 0 0-5 0 3.982 3.982 0 0 0-5.332.3A3.856 3.856 0 0 0 14 1a3.984 3.984 0 0 0-3.47 2.036A4 4 0 0 0 6 7v.126A4.007 4.007 0 0 0 3 11c0 .484.09.963.263 1.414A3.974 3.974 0 0 0 1.884 18.5a3.98 3.98 0 0 0 2.121 6.36 6.591 6.591 0 0 0 1.078 3.712A5.746 5.746 0 0 0 4 32c0 2.8 1.757 5 4 5a3.75 3.75 0 0 0 3.158-1.934c.347.465.72.91 1.116 1.334a20.862 20.862 0 0 0 5.081 4.138c.109 2.093-.331 4.567-2.76 5.536a32.69 32.69 0 0 1-3.245 1.012C6.56 48.408 0 50.222 0 59a1 1 0 0 0 1 1h44a1 1 0 0 0 1-1c0-8.778-6.56-10.592-11.35-11.917zM38 35c-.826 0-1.573-.807-1.862-1.955a21.62 21.62 0 0 0 1.735-4.035c.404-.031.802.106 1.1.38A3.484 3.484 0 0 1 40 32c0 1.626-.916 3-2 3zM6.649 27.3a4.486 4.486 0 0 1-.5-3.426c.059-.321.235-.609.494-.807a.813.813 0 0 1 .4-.06c.065 1.357.247 2.706.545 4.032-.324.042-.64.13-.939.261zm3.588-10.82A11.707 11.707 0 0 1 17 10v2.9a18.909 18.909 0 0 0-6.763 3.577zM19 9.411a19.67 19.67 0 0 1 8 0V12.4a20.636 20.636 0 0 0-4-.4h-.007a20.591 20.591 0 0 0-3.993.407zM29 10a11.7 11.7 0 0 1 6.756 6.467A18.955 18.955 0 0 0 29 12.9zm10.351 17.3c-.3-.132-.618-.22-.944-.261.298-1.328.48-2.68.545-4.039a.817.817 0 0 1 .4.06c.26.2.436.488.495.81.3 1.164.122 2.4-.496 3.43zM3 21c.002-.672.34-1.298.9-1.668a1 1 0 0 0 0-1.664 1.987 1.987 0 0 1 .965-3.65 1 1 0 0 0 .664-1.677A1.992 1.992 0 0 1 6.943 9c.05.007.2.021.247.021a1 1 0 0 0 .936-1.352A1.867 1.867 0 0 1 8 7a2.016 2.016 0 0 1 2.749-1.852 1 1 0 0 0 1.337-.671 1.986 1.986 0 0 1 2.891-1.207 1 1 0 0 0 1.339-.336A1.983 1.983 0 0 1 18 2c.672.002 1.298.34 1.668.9a1.039 1.039 0 0 0 1.664 0 1.99 1.99 0 0 1 3.336 0 1.039 1.039 0 0 0 1.664 0c.37-.56.996-.898 1.668-.9.685 0 1.322.353 1.684.934a1 1 0 0 0 1.339.336 1.985 1.985 0 0 1 2.891 1.207 1 1 0 0 0 1.337.671A2.018 2.018 0 0 1 38 7c0 .229-.043.455-.126.668A1 1 0 0 0 39 9a2 2 0 0 1 2 2 1.971 1.971 0 0 1-.534 1.341 1 1 0 0 0 .664 1.677 1.987 1.987 0 0 1 .965 3.65 1 1 0 0 0 0 1.664 1.987 1.987 0 0 1-.482 3.561 2.911 2.911 0 0 0-1.348-1.608A2.7 2.7 0 0 0 39 21a.983.983 0 0 0-.1-.44C38.451 16.8 36.031 7 23 7 9.414 7 7.361 17.647 7.052 21.008a2.72 2.72 0 0 0-1.317.277 2.9 2.9 0 0 0-1.348 1.609A2 2 0 0 1 3 21zm5 14c-1.084 0-2-1.374-2-3a3.483 3.483 0 0 1 1.028-2.608 1.459 1.459 0 0 1 1.1-.382c.44 1.4 1.022 2.752 1.736 4.034C9.573 34.192 8.826 35 8 35zm5.728.024C10.855 31.979 9 26.844 9 21.94v-.06C9.158 18.72 15.371 14 23 14c7.712 0 13.98 4.828 14 7.987-.012 4.89-1.865 10-4.726 13.035C28.928 38.558 26.241 40 23 40s-5.928-1.442-9.272-4.976zm5.638 6.385c2.359.788 4.91.788 7.268 0a7.005 7.005 0 0 0 2.532 5.647C28.254 47.984 26.467 49 23 49s-5.254-1.016-6.166-1.944a7 7 0 0 0 2.532-5.647zm-4.338 6.626C16.126 49.37 18.4 51 23 51s6.874-1.63 7.972-2.965c.969.363 2.023.666 3.145.976l.436.121A31.4 31.4 0 0 0 34 56v2H12v-2a31.4 31.4 0 0 0-.553-6.868l.436-.121c1.122-.311 2.175-.611 3.145-.976zm-5.5 1.661A31 31 0 0 1 10 56v2H2.034c.366-5.3 3.721-7.11 7.494-8.3zM36 58v-2a31 31 0 0 1 .472-6.3c3.773 1.194 7.124 3 7.494 8.3z" data-original="#000000"/><path d="M18.7 26.287c.196-.4.298-.84.3-1.287a3 3 0 0 0-3.622-2.933 5.849 5.849 0 0 0-2.137.872 5.486 5.486 0 0 1-.572.318 1 1 0 0 0-1.376 1.45c.33.36.794.568 1.282.574.151-.002.301-.02.448-.057.025.369.12.73.279 1.063A1 1 0 0 0 14 28h4a1 1 0 0 0 .7-1.713zM15 25a1 1 0 1 1 2 0 1 1 0 0 1-2 0zM27 27a1 1 0 0 0 1 1h4a1 1 0 0 0 .7-1.713c.158-.332.253-.691.279-1.058.144.034.291.052.439.054a1.779 1.779 0 0 0 1.291-.576.988.988 0 0 0-.011-1.4 1.012 1.012 0 0 0-1.364-.046c-.152-.07-.3-.15-.442-.239l-.131-.079a5.849 5.849 0 0 0-2.137-.872A2.97 2.97 0 0 0 30 22a3 3 0 0 0-3 3c.002.446.104.886.3 1.287A.993.993 0 0 0 27 27zm3-3a1 1 0 1 1 0 2 1 1 0 0 1 0-2zM13 21a1 1 0 0 0 .707-.293c1.526-1.526 3.957-.765 3.981-.757a1 1 0 0 0 .628-1.9c-.146-.05-3.614-1.168-6.023 1.242A1 1 0 0 0 13 21zM28.312 19.95c.024-.008 2.454-.77 3.981.757a1 1 0 0 0 1.414-1.414C31.3 16.884 27.83 18 27.684 18.051a1 1 0 0 0 .628 1.9zM22 30h2a1 1 0 0 0 0-2h-2a1 1 0 0 0 0 2zM26.707 33.707a.992.992 0 0 0 .005-1.4 1.006 1.006 0 0 0-1.408-.029A3.461 3.461 0 0 1 23 33a3.471 3.471 0 0 1-2.3-.717 1 1 0 0 0-1.4 1.424A5.311 5.311 0 0 0 23 35a5.311 5.311 0 0 0 3.707-1.293zM25 37a1 1 0 0 0-1-1h-2a1 1 0 0 0 0 2h2a1 1 0 0 0 1-1z" data-original="#000000"/></g></g></svg>