<svg xmlns="http://www.w3.org/2000/svg" width="512" height="512" viewBox="0 0 46 60" style="enable-background:new 0 0 512 512" xml:space="preserve"><g fill-rule="nonzero" xmlns="http://www.w3.org/2000/svg" fill="none"><path d="M45 59H23V49c2 1 4 4 4 4a54.633 54.633 0 0 0 6.61-5.62h.01C38.62 48 45 48.88 45 59z" fill="#ff5722" data-original="#ff5722"/><path d="M33.62 47.38h-.01c-.107.1-.248.241-.392.381C37.582 48.56 42 50.578 42 59h3c0-10.12-6.38-11-11.38-11.62z" fill="#d84315" data-original="#d84315"/><path d="M23 49v10H1c0-10.12 6.38-11 11.38-11.62h.01A54.633 54.633 0 0 0 19 53s2-3 4-4z" fill="#ff5722" data-original="#ff5722"/><path d="M9.24 30c-2.94-.02-4.86-3.53-4.05-6.4.08-.297.204-.58.37-.84a1.92 1.92 0 0 1 2.49-.55c.155 2.283.472 4.552.95 6.79 0 0 .09.36.24 1zM36.76 30c.15-.64.24-1 .24-1 .46-2.24.775-4.509.94-6.79a1.942 1.942 0 0 1 2.45.48c.193.276.335.584.42.91.81 2.87-1.11 6.38-4.05 6.4z" fill="#dfc49c" data-original="#dfc49c"/><path d="M41.18 11.53A7.161 7.161 0 0 1 38 14c-7 3-16-1-21-2s-9 2-9 6v3c0 .29.02.7.05 1.21a1.92 1.92 0 0 0-2.49.55A19.781 19.781 0 0 1 8 6c5.23-7.85 18-4 24-3s6-2 6-2c3.16 1.58 5.69 6.89 3.18 10.53z" fill="#825a2c" data-original="#825a2c"/><path d="M13.594 11.938C8.787 11.176 5 14.11 5 18v2.365c.137.81.324 1.612.56 2.4a1.92 1.92 0 0 1 2.49-.55C8.02 21.7 8 21.29 8 21v-3c0-3.033 2.3-5.487 5.594-6.062zM29 3c1.186.238 2.405.265 3.6.081-.2-.026-.386-.046-.6-.081-3.452-.575-9.143-2.09-14.351-1.781C21.465 1.581 25.256 2.176 29 3zM38 1a2.029 2.029 0 0 1-1.024 1.571c2.06 2.312 3.151 6.135 1.2 8.959A7.161 7.161 0 0 1 35 14c-1.4.582-2.887.93-4.4 1.031A15.821 15.821 0 0 0 38 14a7.161 7.161 0 0 0 3.18-2.47C43.69 7.89 41.16 2.58 38 1z" fill="#624421" data-original="#624421"/><path d="M40.39 22.69a1.942 1.942 0 0 0-2.45-.48c.04-.51.06-.92.06-1.21v-7a7.161 7.161 0 0 0 3.18-2.47 15.751 15.751 0 0 1-.79 11.16z" fill="#624421" data-original="#624421"/><path d="M36.76 30c-.36 1.49-1.06 4.5-1.76 8-.52 2.62-3.24 4.14-5.99 5H29a.01.01 0 0 0-.01.01c-1.946.584-3.96.916-5.99.99a23.854 23.854 0 0 1-5.99-.99A.01.01 0 0 0 17 43h-.01c-2.75-.86-5.47-2.38-5.99-5-.7-3.5-1.4-6.51-1.76-8h1.06a2.975 2.975 0 0 1 2.57 1.46l1.26 2.08A2.975 2.975 0 0 0 16.7 35h.71a7.71 7.71 0 0 0-.41 1h5a2 2 0 0 0 1-.28 2 2 0 0 0 1 .28h5a7.71 7.71 0 0 0-.41-1h.71a2.975 2.975 0 0 0 2.57-1.46l1.26-2.08A2.975 2.975 0 0 1 35.7 30z" fill="#825a2c" data-original="#825a2c"/><path d="M35.7 30a2.966 2.966 0 0 0-2.164.943c-.387 1.642-.96 4.176-1.536 7.057-.52 2.62-3.24 4.14-5.99 5H26a.01.01 0 0 0-.01.01c-1.466.434-2.97.732-4.49.892.643.068 1.171.1 1.5.1a23.854 23.854 0 0 0 5.99-.99A.01.01 0 0 1 29 43h.01c2.75-.86 5.47-2.38 5.99-5 .7-3.5 1.4-6.51 1.76-8z" fill="#624421" data-original="#624421"/><path d="M29 36h-5a2 2 0 0 1-1-.28 2 2 0 0 1-1 .28h-5a7.71 7.71 0 0 1 .41-1A4.858 4.858 0 0 1 22 32a2 2 0 0 1 1 .28 2 2 0 0 1 1-.28 4.858 4.858 0 0 1 4.59 3c.16.323.297.657.41 1z" fill="#624421" data-original="#624421"/><path d="M38 14v7c0 .29-.02.7-.06 1.21A52.628 52.628 0 0 1 37 29s-.09.36-.24 1H35.7a2.975 2.975 0 0 0-2.57 1.46l-1.26 2.08A2.975 2.975 0 0 1 29.3 35h-.71A4.858 4.858 0 0 0 24 32a2 2 0 0 0-1 .28 2 2 0 0 0-1-.28 4.858 4.858 0 0 0-4.59 3h-.71a2.975 2.975 0 0 1-2.57-1.46l-1.26-2.08A2.975 2.975 0 0 0 10.3 30H9.24c-.15-.64-.24-1-.24-1a48.043 48.043 0 0 1-.95-6.79C8.02 21.7 8 21.29 8 21v-3c0-4 4-7 9-6s14 5 21 2z" fill="#ffe0b2" data-original="#ffe0b2"/><path d="M35 14.858V21c0 .29-.02.7-.06 1.21A52.628 52.628 0 0 1 34 29s-.09.36-.24 1H32.7a2.975 2.975 0 0 0-2.57 1.46l-1.26 2.08c-.18.29-.407.546-.674.758.145.225.277.459.394.7h.71a2.975 2.975 0 0 0 2.57-1.46l1.26-2.08A2.975 2.975 0 0 1 35.7 30h1.06c.15-.64.24-1 .24-1 .46-2.24.775-4.509.94-6.79.04-.51.06-.92.06-1.21v-7c-.962.404-1.97.692-3 .858z" fill="#dfc49c" data-original="#dfc49c"/><circle cx="16" cy="26" fill="#00bcd4" r="2" data-original="#00bcd4"/><circle cx="30" cy="26" fill="#00bcd4" r="2" data-original="#00bcd4"/><path d="M23 49c-2 1-4 4-4 4a54.633 54.633 0 0 1-6.61-5.62h-.01L12 47a10.867 10.867 0 0 1 4.99-4H17a.01.01 0 0 1 .01.01A30.675 30.675 0 0 1 23 49z" fill="#f5f5f5" data-original="#f5f5f5"/><path d="M17.01 43.01A.01.01 0 0 0 17 43h-.01a9.828 9.828 0 0 0-1.785.906A34.413 34.413 0 0 1 20 49a10.38 10.38 0 0 0-2.921 2.579A28.277 28.277 0 0 0 19 53s2-3 4-4a30.675 30.675 0 0 0-5.99-5.99z" fill="#cfd8dc" data-original="#cfd8dc"/><path d="M28.99 43.01A30.675 30.675 0 0 0 23 49a30.675 30.675 0 0 0-5.99-5.99c1.946.584 3.96.916 5.99.99a23.854 23.854 0 0 0 5.99-.99z" fill="#dfc49c" data-original="#dfc49c"/><path d="m34 47-.38.38h-.01A54.633 54.633 0 0 1 27 53s-2-3-4-4a30.675 30.675 0 0 1 5.99-5.99A.01.01 0 0 1 29 43h.01A10.867 10.867 0 0 1 34 47z" fill="#f5f5f5" data-original="#f5f5f5"/><path d="M29.01 43H29a.01.01 0 0 0-.01.01c-.4.267-.8.572-1.2.9A10.756 10.756 0 0 1 31 47l-.38.38h-.01c-.8.786-2.741 2.638-4.689 4.2C26.573 52.362 27 53 27 53a54.633 54.633 0 0 0 6.61-5.62h.01L34 47a10.867 10.867 0 0 0-4.99-4z" fill="#cfd8dc" data-original="#cfd8dc"/><g fill="#000"><path d="M34.87 46.533c-.015-.029-.02-.06-.038-.088a11.69 11.69 0 0 0-3.41-3.326c2.213-1.035 4.092-2.592 4.558-4.923.6-3 1.2-5.646 1.587-7.279a5.019 5.019 0 0 0 3.091-1.961 6.512 6.512 0 0 0 1.114-5.625 4.38 4.38 0 0 0-.262-.707 16.754 16.754 0 0 0 .747-10.945 7.421 7.421 0 0 0 .666-5.663A9.347 9.347 0 0 0 38.447.105a1.007 1.007 0 0 0-.94.046A1.037 1.037 0 0 0 37 .966c-.046.272-.2.514-.428.67-.436.343-1.59.848-4.409.378-.762-.127-1.634-.3-2.587-.491C23.04.223 12.1-1.952 7.168 5.445a20.787 20.787 0 0 0-2.684 17.19c-.104.223-.19.455-.255.693a6.513 6.513 0 0 0 1.113 5.628 5.024 5.024 0 0 0 3.091 1.961c.382 1.625.986 4.277 1.587 7.279.466 2.331 2.345 3.888 4.558 4.923a11.69 11.69 0 0 0-3.41 3.326c-.018.028-.023.059-.038.088C6.319 47.186 0 48.732 0 59a1 1 0 0 0 1 1h44a1 1 0 0 0 1-1c0-10.268-6.319-11.814-11.13-12.467zm-2.189.358a60.649 60.649 0 0 1-5.45 4.724 15.8 15.8 0 0 0-2.759-2.861 28.731 28.731 0 0 1 4.653-4.621 10.093 10.093 0 0 1 3.556 2.758zM35.7 29a3.949 3.949 0 0 0-3.426 1.942L31.01 33.03a1.97 1.97 0 0 1-1.71.97h-.112A5.82 5.82 0 0 0 24 31c-.341 0-.68.061-1 .178A2.937 2.937 0 0 0 22 31a5.82 5.82 0 0 0-5.188 3H16.7a1.975 1.975 0 0 1-1.715-.978L13.73 30.95A3.951 3.951 0 0 0 10.3 29h-.27l-.055-.226A44.231 44.231 0 0 1 9 21v-3a4.823 4.823 0 0 1 1.83-3.778 7.146 7.146 0 0 1 5.97-1.242c1.085.218 2.42.6 3.832 1C25.3 15.3 31.547 17.075 37 15.426V21c0 .271-.02.655-.057 1.128a53.651 53.651 0 0 1-.913 6.629c0 .006-.023.094-.06.243zm-8.236 6H24a.971.971 0 0 1-.5-.141 1 1 0 0 0-1.008 0A.971.971 0 0 1 22 35h-3.464A3.8 3.8 0 0 1 22 33c.176 0 .35.05.5.141a1 1 0 0 0 1.008 0A.971.971 0 0 1 24 33a3.8 3.8 0 0 1 3.464 2zM39 14.614a8.934 8.934 0 0 0 1.641-1.056 14.757 14.757 0 0 1-.706 7.6 2.787 2.787 0 0 0-.935-.164zm.071 13.124a3.55 3.55 0 0 1-.974.875A55.3 55.3 0 0 0 38.876 23a.858.858 0 0 1 .473.056c.262.2.44.49.5.814a4.54 4.54 0 0 1-.778 3.868zM8.832 6.555C13.02.27 22.75 2.205 29.188 3.485c.975.194 1.868.371 2.648.5 2.807.469 4.85.178 6.076-.861a3.2 3.2 0 0 0 .568-.624 7.866 7.866 0 0 1 2.506 4.012 5.364 5.364 0 0 1-.632 4.451 6.219 6.219 0 0 1-2.75 2.117c-5.1 2.182-11.378.4-16.421-1.029-1.453-.412-2.825-.8-3.987-1.033a9.123 9.123 0 0 0-7.634 1.655A6.792 6.792 0 0 0 7 18v2.994c-.283 0-.564.044-.833.129A18.694 18.694 0 0 1 8.832 6.555zm-1.9 21.183a4.539 4.539 0 0 1-.776-3.868c.06-.324.238-.613.5-.812A.842.842 0 0 1 7.107 23c.164 1.887.43 3.763.8 5.621-.378-.23-.71-.53-.978-.883zM11.98 37.8c-.539-2.7-1.082-5.118-1.467-6.777.623.06 1.18.413 1.5.951l1.257 2.076A3.936 3.936 0 0 0 16 35.933 1 1 0 0 0 17 37h5c.341 0 .68-.061 1-.178.32.117.659.177 1 .178h5a1 1 0 0 0 1-1.067 3.933 3.933 0 0 0 2.73-1.875l1.26-2.088c.32-.536.878-.886 1.5-.943-.39 1.659-.931 4.073-1.47 6.773C33.161 42.1 24.642 43 23 43s-10.161-.9-11.02-5.2zM23 45c.78-.015 1.56-.078 2.332-.188-.954.959-1.771 1.9-2.332 2.581a37.955 37.955 0 0 0-2.332-2.581c.773.11 1.552.173 2.332.188zm-6.125-.867a28.731 28.731 0 0 1 4.653 4.621 15.8 15.8 0 0 0-2.759 2.861 60.933 60.933 0 0 1-5.45-4.724 10.093 10.093 0 0 1 3.556-2.758zm-4.841 4.3a54.388 54.388 0 0 0 6.411 5.4 1 1 0 0 0 1.387-.277A17.089 17.089 0 0 1 22 50.984V58H11v-2a1 1 0 0 0-2 0v2H2.022c.378-8.1 5.394-8.987 10.012-9.569zM37 58v-2a1 1 0 0 0-2 0v2H24v-7.015a17.153 17.153 0 0 1 2.168 2.57 1 1 0 0 0 1.387.277 54.388 54.388 0 0 0 6.411-5.4C38.584 49.013 43.6 49.9 43.978 58z" data-original="#000000"/><path d="M16 23a3 3 0 1 0 0 6 3 3 0 0 0 0-6zm0 4a1 1 0 1 1 0-2 1 1 0 0 1 0 2zM30 23a3 3 0 1 0 0 6 3 3 0 0 0 0-6zm0 4a1 1 0 1 1 0-2 1 1 0 0 1 0 2zM24 28h-2a1 1 0 0 0 0 2h2a1 1 0 0 0 0-2zM25 39a1 1 0 0 0-1-1h-2a1 1 0 0 0 0 2h2a1 1 0 0 0 1-1zM16.684 20.949a1.001 1.001 0 0 0 .632-1.9 6.006 6.006 0 0 0-6.023 1.242 1 1 0 0 0 1.407 1.421 4.021 4.021 0 0 1 3.984-.763zM28.684 19.051a1.001 1.001 0 0 0 .632 1.9 4.012 4.012 0 0 1 3.981.762 1 1 0 0 0 1.41-1.418 6.007 6.007 0 0 0-6.023-1.244z" data-original="#000000"/></g></g></svg>