<svg width="44" height="44" fill="none" xmlns="http://www.w3.org/2000/svg"><circle cx="22" cy="22" r="21.5" fill="#fff" stroke="#141B3A"/><path d="m29.5 25.75 3.311-3.311a1.5 1.5 0 0 0 0-2.121L30.7 18.212a3.75 3.75 0 1 1-4.912-4.912l-2.106-2.111a1.5 1.5 0 0 0-2.121 0L18.25 14.5a3.75 3.75 0 1 0-3.75 3.75l-3.311 3.311a1.5 1.5 0 0 0 0 2.121l2.111 2.106a3.75 3.75 0 1 1 4.912 4.912l2.106 2.107a1.5 1.5 0 0 0 2.121 0L25.75 29.5a3.75 3.75 0 1 0 3.75-3.75v0Z" stroke="#141B3A" stroke-width="1.5" stroke-linecap="round" stroke-linejoin="round"/></svg>