<svg xmlns="http://www.w3.org/2000/svg" width="1440" height="250" preserveAspectRatio="none" fill="none"><path d="m188.857 37.956 3.902-3.974 11.262-7.846c4.229-2.946 9.809-3.754 14.738-2.466 9.451 2.47 24.021 5.877 24.999 5.346.597-.325 2.23-1.966 4.174-3.918 2.64-2.652 5.852-5.88 7.816-7.163l11.671-5.922c3.384-1.502 7.299-.71 9.905 2.002l.646.673 4.428 4.872 7.803 1.572a4.118 4.118 0 0 1 2.085 1.121l4.214 4.183c1.842 1.828 4.697 1.927 6.651.231l.59-.512a4.03 4.03 0 0 1 4.708-.45l5.652 3.31 9.113 4.968h1.52c3.997 0 7.785 1.872 10.325 5.103l.945 1.2h7.354c3.957 0 7.822-1.252 11.087-3.593l2.782-1.994a3.787 3.787 0 0 1 2.21-.716h8.062c1.011 0 1.967.478 2.601 1.3l6.511 8.442 6.714-3.438 12.31 3.438h13.11l18.238 4.638 19.971-10.56h14.708l14.548 2.484 10.383-10.765a1.633 1.633 0 0 1 1.176-.506h10.024l10.871-7.642 13.749-3.439 11.67-8.405 18.066-8.024c5.403-2.583 11.73-1.802 16.412 2.024l.424.346 30.166 17.498 11.67 7.642 18.699 3.004 11.148-3.004.986-1.111c1.259-1.42 3.381-1.498 4.733-.174l3.961 3.88 7.499.41 2.269-1.97c4.614-4.003 10.419-6.194 16.412-6.194l7.034-2.483 14.868-8.979h11.991l18.705 5.54 6.394 5.922 16.147 2.484 4.317 7.642h26.858l9.77-4.268 13.436-14.286c1.78-1.893 4.352-2.719 6.84-2.196l10.234 4.702 12.303 5.922 7.049-8.405 4.149-3.66c1.415-1.248 3.531-1.054 4.718.432l4.562 5.711 3.837 8.406 9.794 4.719a23.993 23.993 0 0 1 4.328 2.687l5.702 4.438 5.874-1.697c5.446-1.573 11.282-.306 15.681 3.405l1.147.967h5.26c1.446 0 2.888.109 4.316.326l12.2-6.231.441-.323c4.866-3.566 11.223-4 16.49-1.127l17.642 8.997 11.237 9.03 13.559 4.184 10.477 8.223 10.012.546c.44.024.85.23 1.15.57l4.02 4.63 17.89 5.295 2.57-.296 14.69.801 15.2 9.106 6.81 2.016 15.85-3.125 13.1.714 12.46-2.763 6.53 3.8 6.93-8.076a3.26 3.26 0 0 1 2.66-1.158l8.05.44c.79.043 1.54.334 2.17.836l2.68 2.143c3.14 2.516 6.94 3.977 10.89 4.193l7.35.4 1-1.148c2.7-3.088 6.57-4.751 10.56-4.533l1.52.083 9.35-4.464 5.81-2.998c1.55-.8 3.41-.52 4.68.706l.56.544c1.87 1.8 4.73 1.856 6.66.131l4.41-3.947c.61-.542 1.35-.891 2.14-1.006l7.87-1.145 4.66-4.625.68-.636c2.74-2.567 6.69-3.144 9.99-1.46l11.36 6.55c1.9 1.39 4.95 4.787 7.45 7.58 1.85 2.055 3.4 3.783 3.98 4.14.95.583 15.67-2.026 25.23-3.977 4.99-1.017 10.52.093 14.59 3.266l10.86 8.45 3.7 4.18a23.795 23.795 0 0 0 8.75 6.255l7.72 4.973 4.12 2.66h8.53l6.76-2.66h9.06l26.77-25.851a4.992 4.992 0 0 1 7.33.423l11.67 14.2 11.12 3.385 8.27 7.843 9.18 8.985 5.92 6.731 6.42 4.327 6.42 3.846V170H568.257l-208.05-10.234-167.448.493L0 159.75V98.38l7.273 3.092 10.729-3.079 7.947-5.624h4.842l6.758-3.644 3.84-3.432L48.2 82.77l8.742 7.22 5.023-4.297 4.746-1.777 6.373-6.313 4.52-6.692 8.344-5.823L94.69 57.6l16.689-13.876 20.357 13.876 32.152-4.785 15.923-9.09a23.663 23.663 0 0 0 9.046-5.77z" fill="#f3d3bc"/><path d="M448.758 101h60.561l32.533 5.246c4.838 1.076 16.116 3.35 22.523 3.834 6.406.484 41.708.202 58.559 0 10.177 3.094 32.833 9.806 42.042 11.905 9.209 2.098 36.537-2.22 49.049-4.641l28.733 5.423h34.511l24.345-.782 38.676 4.151h8.003l59.428-4.151 29.029 5.852h131.12l39.51 10.088 63.02 7.386 59.52-7.386 38.01 7.386 47.02-7.386H1468V250l-423.14-30.556-108.11 6.457H302.611L-29 247.15V110.08H5.011l43.515 11.905 47.016-11.905h72.024l63.021 7.264h83.027l58.02-7.264 77.124-9.08z" fill="#ffb987"/></svg>