<svg xmlns="http://www.w3.org/2000/svg" width="512" height="512" viewBox="0 0 56 60" style="enable-background:new 0 0 512 512" xml:space="preserve"><g fill-rule="nonzero" transform="translate(0 -1)" xmlns="http://www.w3.org/2000/svg" fill="none"><path d="M50 60H6c0-4.86 2.11-7.36 4.86-8.87a24.381 24.381 0 0 1 5.15-1.92C16.15 51.07 18.07 52 20 52c2 0 7 0 8 2 1-2 6-2 8-2 1.93 0 3.85-.93 3.99-2.79a24.381 24.381 0 0 1 5.15 1.92C47.89 52.64 50 55.14 50 60z" fill="#ef314c" data-original="#ef314c"/><path d="M45.14 51.13a24.381 24.381 0 0 0-5.15-1.92c-.027.3-.107.594-.237.867.822.288 1.62.64 2.387 1.053C44.89 52.64 47 55.14 47 60h3c0-4.86-2.11-7.36-4.86-8.87z" fill="#bb193b" data-original="#bb193b"/><path d="M43 17a19.236 19.236 0 0 1 .35 13.15 1.011 1.011 0 0 1-1.26.62 3.753 3.753 0 0 1-.47-.17M41.62 30.6v.01a17.805 17.805 0 0 1-3.62 6.1 18.913 18.913 0 0 1-5.33 4.2 10.549 10.549 0 0 1-9.34 0 18.913 18.913 0 0 1-5.33-4.2 17.491 17.491 0 0 1-3.48-5.72 22.486 22.486 0 0 1-1.51-7.79A1.34 1.34 0 0 1 13 23c2-7 6-8 6-8 1 2 0 3 0 3a6.889 6.889 0 0 0 5-4s0 6.35 7.77 13a1.018 1.018 0 0 0 1.58-.34A3.455 3.455 0 0 1 35 25a14.6 14.6 0 0 0 6.62 5.6z" fill="#ffe0b2" data-original="#ffe0b2"/><path d="M28.77 27a1.018 1.018 0 0 0 1.58-.34c.105-.215.23-.419.376-.608C24.016 19.76 24 14 24 14a6.291 6.291 0 0 1-2.429 2.882c.787 2.474 2.668 6.24 7.199 10.118zM35 25a3.455 3.455 0 0 0-1.65 1.66.863.863 0 0 1-.048.075A13.332 13.332 0 0 0 38.62 30.6v.01a17.805 17.805 0 0 1-3.62 6.1 18.913 18.913 0 0 1-5.33 4.2c-.999.49-2.069.819-3.17.974.497.074.998.113 1.5.116 1.62.005 3.22-.369 4.67-1.09a18.913 18.913 0 0 0 5.33-4.2 17.805 17.805 0 0 0 3.62-6.1v-.01A14.6 14.6 0 0 1 35 25zM14.52 30.99c-3.09.21-5.17-3.42-4.33-6.39a1.915 1.915 0 0 1 2.82-1.4 22.486 22.486 0 0 0 1.51 7.79z" fill="#dfc49c" data-original="#dfc49c"/><path d="m54 32-2-2s.91 14.61-6.86 21.13a24.381 24.381 0 0 0-5.15-1.92c.008-.07.012-.14.01-.21v-4.59c0-1.53-3.26-2.33-7.38-2.4 0-.39.03-.75.06-1.09l-.01-.01a18.913 18.913 0 0 0 5.33-4.2 17.805 17.805 0 0 0 3.62-6.1v-.01A14.6 14.6 0 0 1 35 25a3.455 3.455 0 0 0-1.65 1.66 1.018 1.018 0 0 1-1.58.34C24 20.35 24 14 24 14a6.889 6.889 0 0 1-5 4s1-1 0-3c0 0-4 1-6 8a1.34 1.34 0 0 0 .01.2 1.915 1.915 0 0 0-2.82 1.4c-.84 2.97 1.24 6.6 4.33 6.39A17.491 17.491 0 0 0 18 36.71a18.913 18.913 0 0 0 5.33 4.2l-.01.01c.03.34.06.7.06 1.09-4.12.07-7.38.87-7.38 2.4V49c-.002.07.002.14.01.21a24.381 24.381 0 0 0-5.15 1.92C3.09 44.61 4 30 4 30l-2 2C0 21 7 12 7 12c-1-1-3 0-3 0C5 7 10 2 16 2s8 2 8 2 4-2 11-2c11 0 16 6 17 11 0 0-1-1-3 0 0 0 7 8 5 19z" fill="sienna" data-original="#a0522d"/><path d="M49 13s-1-1-3 0c0 0 7 8 5 19l-2-2s.826 13.345-5.888 20.217c.696.257 1.374.562 2.028.913C52.91 44.61 52 30 52 30l2 2c2-11-5-19-5-19z" fill="#783e22" data-original="#783e22"/><path d="M52 13C51 8 46 2 35 2c-.591 0-1.153.019-1.7.045C43.385 2.5 48.041 8.2 49 13c2-1 3 0 3 0zM23.33 40.91a18.913 18.913 0 0 1-5.33-4.2 17.491 17.491 0 0 1-3.48-5.72c-3.09.21-5.17-3.42-4.33-6.39a1.915 1.915 0 0 1 2.82-1.4A1.34 1.34 0 0 1 13 23a14.1 14.1 0 0 1 3.434-6.319A3.647 3.647 0 0 0 16 15s-4 1-6 8a1.34 1.34 0 0 0 .01.2 1.915 1.915 0 0 0-2.82 1.4c-.84 2.97 1.24 6.6 4.33 6.39A17.491 17.491 0 0 0 15 36.71a18.913 18.913 0 0 0 5.33 4.2l-.01.01c.03.34.06.7.06 1.09-4.12.07-7.38.87-7.38 2.4V49c-.002.07.002.14.01.21-1.037.292-2.1.615-3.122 1.007.31.317.629.626.972.913a24.381 24.381 0 0 1 5.15-1.92A1.477 1.477 0 0 1 16 49v-4.59c0-1.53 3.26-2.33 7.38-2.4 0-.39-.03-.75-.06-1.09z" fill="#783e22" data-original="#783e22"/><circle cx="21" cy="27" fill="#00bcd4" r="2" data-original="#00bcd4"/><path d="M23.38 42.01c.01 2.06-.54 4.65-3.09 5.84-1.89-.71-3.54-1.64-4.14-2.85a1.391 1.391 0 0 1-.15-.59c0-1.53 3.26-2.33 7.38-2.4z" fill="#bb193b" data-original="#bb193b"/><path d="M35.71 47.85c-.03.01-.07.03-.1.04-1.199.436-2.42.807-3.66 1.11A5.274 5.274 0 0 0 28 54a5.274 5.274 0 0 0-3.95-5 35.193 35.193 0 0 1-3.66-1.11c-.03-.01-.07-.03-.1-.04 2.55-1.19 3.1-3.78 3.09-5.84 0-.39-.03-.75-.06-1.09l.01-.01a10.549 10.549 0 0 0 9.34 0l.01.01c-.03.34-.06.7-.06 1.09-.01 2.06.54 4.65 3.09 5.84z" fill="#dfc49c" data-original="#dfc49c"/><path d="M28 54c-1-2-6-2-8-2-1.93 0-3.85-.93-3.99-2.79A1.477 1.477 0 0 1 16 49v-4.59c.006.205.057.407.15.59.6 1.21 2.25 2.14 4.14 2.85.03.01.07.03.1.04 1.199.436 2.42.807 3.66 1.11A5.274 5.274 0 0 1 28 54z" fill="#ef314c" data-original="#ef314c"/><path d="M40 44.41a1.391 1.391 0 0 1-.15.59c-.6 1.21-2.25 2.14-4.14 2.85-2.55-1.19-3.1-3.78-3.09-5.84 4.12.07 7.38.87 7.38 2.4z" fill="#bb193b" data-original="#bb193b"/><path d="M40 44.41V49c.002.07-.002.14-.01.21C39.85 51.07 37.93 52 36 52c-2 0-7 0-8 2a5.274 5.274 0 0 1 3.95-5 35.193 35.193 0 0 0 3.66-1.11c.03-.01.07-.03.1-.04 1.89-.71 3.54-1.64 4.14-2.85.093-.183.144-.385.15-.59z" fill="#ef314c" data-original="#ef314c"/><g fill="#000"><path d="M51.293 13.707a1 1 0 0 0 1.687-.9C51.892 7.359 46.529 1 35 1a29.361 29.361 0 0 0-10.86 1.846C23.129 2.17 20.7 1 16 1 9.317 1 4.059 6.608 3.02 11.8a1 1 0 0 0 1.427 1.1c.292-.14.6-.24.919-.3-1.863 2.878-6 10.521-4.35 19.581a1 1 0 0 0 1.691.528l.266-.266c.1 4.327.988 13.2 6.251 18.53C6.852 52.65 5 55.332 5 60a1 1 0 0 0 1 1h44a1 1 0 0 0 1-1c0-4.668-1.852-7.35-4.224-9.029 5.263-5.326 6.152-14.2 6.251-18.53l.266.266a1 1 0 0 0 1.691-.528 25 25 0 0 0-4.3-18.624c.214-.01.425.042.609.152zM48.966 59H41v-2a1 1 0 0 0-2 0v2H17v-2a1 1 0 0 0-2 0v2H7.034c.377-5.451 3.9-7.231 8.268-8.543C16.038 52.13 18.026 53 20 53c.741 0 1.4.017 2 .045V56a1 1 0 0 0 0 2h2a1 1 0 0 0 0-2v-2.786c2.115.28 2.882.785 3.105 1.233a1 1 0 0 0 1.79 0c.223-.448.99-.953 3.105-1.233V56a1 1 0 0 0 0 2h2a1 1 0 0 0 0-2v-2.955c.6-.028 1.259-.045 2-.045 1.974 0 3.962-.87 4.7-2.543 4.369 1.312 7.889 3.092 8.266 8.543zM12.049 24a23.6 23.6 0 0 0 .976 5.673 3.438 3.438 0 0 1-1.031-.853 4.51 4.51 0 0 1-.841-3.953c.059-.321.235-.609.494-.807a.833.833 0 0 1 .402-.06zM14 23.138c1.27-4.334 3.29-6.1 4.417-6.78.08.316.035.65-.125.935a1 1 0 0 0 .95 1.677 8.631 8.631 0 0 0 4.2-2.345c.725 2.605 2.637 6.819 7.683 11.136a1.989 1.989 0 0 0 1.714.438 2.017 2.017 0 0 0 1.41-1.112c.123-.258.29-.493.493-.694a15.609 15.609 0 0 0 5.591 4.763 16.216 16.216 0 0 1-3.059 4.866C33.928 39.558 31.241 41 28 41s-5.928-1.442-9.272-4.976C15.9 33.028 14.054 27.984 14 23.138zM33 51.1h-.008c-1.098.064-2.185.25-3.242.554a3.98 3.98 0 0 1 2.443-1.686 35.764 35.764 0 0 0 3.766-1.143A13.841 13.841 0 0 0 39 47.315V49c0 1.582-1.962 2-3 2-1 0-2.019.027-3 .1zm-10 0c-.977-.074-1.993-.1-3-.1-1.038 0-3-.418-3-2v-1.684c.948.627 1.97 1.135 3.042 1.512 1.23.449 2.485.83 3.758 1.141a3.983 3.983 0 0 1 2.445 1.687 14.842 14.842 0 0 0-3.237-.556zm1.354-8.694c2.361.79 4.915.79 7.276 0a7.329 7.329 0 0 0 1.907 5.117c-.579.175-1.192.344-1.84.506A5.957 5.957 0 0 0 28 50.684a5.956 5.956 0 0 0-3.708-2.654 40.707 40.707 0 0 1-1.837-.505 7.322 7.322 0 0 0 1.907-5.117zm14.592 2.148c-.262.528-1.045 1.322-3.173 2.188a4.539 4.539 0 0 1-2.1-3.7c4.014.2 5.324 1.1 5.324 1.362a.423.423 0 0 1-.043.152zm-18.727 2.19c-2.128-.866-2.911-1.659-3.166-2.174a.47.47 0 0 1-.053-.16c0-.262 1.31-1.157 5.324-1.362a4.537 4.537 0 0 1-2.105 3.696zm33.059-16.88-.571-.571a1 1 0 0 0-1.7.769c.009.138.742 13.534-6.011 19.857A24.369 24.369 0 0 0 41 48.457V44.41c0-2.343-3.586-3.1-6.6-3.32a22.54 22.54 0 0 0 4.328-3.69 18.313 18.313 0 0 0 3.5-5.587 2 2 0 0 0 2.059-1.316 20.263 20.263 0 0 0-.35-13.844 1 1 0 0 0-1.874.7 18.04 18.04 0 0 1 .32 12.462 9.549 9.549 0 0 1-.383-.128l-.038-.015-.036-.012a13.74 13.74 0 0 1-6.069-5.174 1 1 0 0 0-1.3-.379 4.665 4.665 0 0 0-2.128 2.136C25.145 20.012 25 14.054 25 14a1 1 0 0 0-1.946-.324 5.456 5.456 0 0 1-2.622 2.724 4.9 4.9 0 0 0-.537-1.848 1 1 0 0 0-1.138-.523c-.18.045-4.294 1.167-6.5 8a2.8 2.8 0 0 0-1.527.258 3.087 3.087 0 0 0-1.507 2.043 6.568 6.568 0 0 0 1.213 5.756 4.989 4.989 0 0 0 3.415 1.89 18.3 18.3 0 0 0 3.423 5.424 22.493 22.493 0 0 0 4.326 3.69c-3.01.222-6.6.977-6.6 3.32v4.047c-1.37.37-2.706.86-3.991 1.462C4.256 43.6 4.989 30.2 5 30.062a1 1 0 0 0-1.7-.769l-.57.57c-.817-9.523 5-17.169 5.067-17.25a1 1 0 0 0-.083-1.32 2.737 2.737 0 0 0-2.245-.727C6.976 6.677 11.023 3 16 3c5.4 0 7.287 1.7 7.293 1.707a1 1 0 0 0 1.152.189A25.954 25.954 0 0 1 35 3c9.139 0 13.917 4.308 15.544 8.56a4.823 4.823 0 0 0-1.991.545 1 1 0 0 0-.306 1.553 23.765 23.765 0 0 1 5.031 16.206z" data-original="#000000"/><path d="M21 30a3 3 0 1 0-.622-5.933 5.849 5.849 0 0 0-2.137.872 5.486 5.486 0 0 1-.572.318 1 1 0 0 0-1.376 1.45c.33.36.794.568 1.282.574.151-.002.301-.02.448-.057A2.994 2.994 0 0 0 21 30zm0-2a1 1 0 1 1 0-2 1 1 0 0 1 0 2zM17 23a1 1 0 0 0 .441-.1A11.325 11.325 0 0 1 22 22a1 1 0 0 0 0-2 13.128 13.128 0 0 0-5.447 1.105A1 1 0 0 0 17 23zM27 32h2a1 1 0 0 0 0-2h-2a1 1 0 0 0 0 2zM26 36h4a1 1 0 0 0 0-2h-4a1 1 0 0 0 0 2zM29 37h-2a1 1 0 0 0 0 2h2a1 1 0 0 0 0-2z" data-original="#000000"/></g></g></svg>