<svg xmlns="http://www.w3.org/2000/svg" width="512" height="512" viewBox="0 0 46 60" style="enable-background:new 0 0 512 512" xml:space="preserve"><g fill-rule="nonzero" xmlns="http://www.w3.org/2000/svg" fill="none"><path d="M45 59H1c0-9.21 5.28-10.76 10-11.44V48c0 2 2 3 4 3s7 0 8 2c1-2 6-2 8-2s4-1 4-3v-.44c4.72.68 10 2.23 10 11.44z" fill="#02a9f4" data-original="#02a9f4"/><path d="M35 47.56V48c0 .06-.018.111-.022.169C38.7 49.229 42 51.715 42 59h3c0-9.21-5.28-10.76-10-11.44z" fill="#0377bc" data-original="#0377bc"/><path d="M9.11 29.99c-2.86-.12-4.72-3.56-3.92-6.39.125-.577.47-1.082.96-1.41h.01A10.571 10.571 0 0 0 8 25a37.72 37.72 0 0 0 1.11 4.99z" fill="#dfc49c" data-original="#dfc49c"/><path d="M36.03 32.37c-.275.902-.62 1.781-1.03 2.63-1.24 2.48-4.41 4.2-7.35 5.14A16.767 16.767 0 0 1 23 41a16.767 16.767 0 0 1-4.65-.86C15.41 39.2 12.24 37.48 11 35a32 32 0 0 1-1.89-5.01A37.72 37.72 0 0 1 8 25c2-7 6-8 6-8 1 2 0 3 0 3a6.889 6.889 0 0 0 5-4s.9 6.33 8.74 12.98a1 1 0 0 0 1.59-.43c.19-.53.414-1.048.67-1.55a14.85 14.85 0 0 0 6.03 5.37z" fill="#ffe0b2" data-original="#ffe0b2"/><path d="M11 20a7.77 7.77 0 0 0 3.4-1.766A4.061 4.061 0 0 0 14 17c-.98.344-1.86.92-2.566 1.681A2 2 0 0 1 11 20zM24.74 28.98a1 1 0 0 0 1.59-.43c.066-.183.148-.394.24-.615C19.818 21.683 19 16 19 16a6.192 6.192 0 0 1-2.16 2.694 27.492 27.492 0 0 0 7.9 10.286zM30 27c-.256.502-.48 1.02-.67 1.55a.974.974 0 0 1-.643.619 13.313 13.313 0 0 0 4.343 3.2c-.275.902-.62 1.782-1.03 2.631-1.24 2.48-4.41 4.2-7.35 5.14a19.82 19.82 0 0 1-3.15.727c.496.078.998.123 1.5.133a16.767 16.767 0 0 0 4.65-.86c2.94-.94 6.11-2.66 7.35-5.14.41-.849.755-1.728 1.03-2.63A14.85 14.85 0 0 1 30 27z" fill="#dfc49c" data-original="#dfc49c"/><circle cx="16" cy="26" fill="#00bcd4" r="2" data-original="#00bcd4"/><path d="M42 15c0 2.83-.89 8.33-2.67 11.46h-.01a17.363 17.363 0 0 1-.98 5.7 1 1 0 0 1-1.25.61 8.919 8.919 0 0 1-1.06-.4A14.85 14.85 0 0 1 30 27c-.256.502-.48 1.02-.67 1.55a1 1 0 0 1-1.59.43C19.9 22.33 19 16 19 16a6.889 6.889 0 0 1-5 4s1-1 0-3c0 0-4 1-6 8a10.571 10.571 0 0 1-1.84-2.81h-.01A12.221 12.221 0 0 1 5 17C5 6 14 5 14 5s4-4 12-4 16 6 16 14z" fill="sienna" data-original="#a0522d"/><path d="M11.434 18.681A3.647 3.647 0 0 0 11 17s-2.81.718-4.9 5.074c.017.036.031.08.048.116h.01A10.571 10.571 0 0 0 8 25a14.1 14.1 0 0 1 3.434-6.319zM16.84 18.694A12.863 12.863 0 0 1 16 16c-.351.86-.9 1.625-1.6 2.234A2.118 2.118 0 0 1 14 20a8.015 8.015 0 0 0 2.84-1.306zM26 1c-.57 0-1.115.025-1.644.063C31.879 1.691 39 7.453 39 15c0 2.83-.89 8.33-2.67 11.46h-.01a17.4 17.4 0 0 1-.944 5.6c.213.111.43.216.654.314.344.156.699.29 1.06.4a1 1 0 0 0 1.25-.61c.643-1.832.974-3.759.98-5.7h.01C41.11 23.33 42 17.83 42 15c0-8-8-14-16-14zM27 27a13.64 13.64 0 0 0-.43.935c.375.347.758.7 1.17 1.045a1 1 0 0 0 .947.189A14.878 14.878 0 0 1 27 27z" fill="#783e22" data-original="#783e22"/><path d="M39.32 26.46c.04-2.548-.409-5.08-1.32-7.46" fill="#ffe0b2" data-original="#ffe0b2"/><path d="M18.39 41.01c.06 2.17-.36 5.09-3 5.88-1.93-.72-3.63-1.66-4.24-2.89a1.391 1.391 0 0 1-.15-.59c0-1.53 3.27-2.33 7.39-2.4z" fill="#283593" data-original="#283593"/><path d="M30.61 46.89c-1.199.436-2.42.807-3.66 1.11A5.274 5.274 0 0 0 23 53a5.274 5.274 0 0 0-3.95-5 35.193 35.193 0 0 1-3.66-1.11c2.64-.79 3.06-3.71 3-5.88 0-.31-.02-.6-.04-.87 1.502.505 3.067.794 4.65.86a16.767 16.767 0 0 0 4.65-.86c-.02.27-.04.56-.04.87-.06 2.17.36 5.09 3 5.88z" fill="#dfc49c" data-original="#dfc49c"/><path d="M35 43.41a1.391 1.391 0 0 1-.15.59c-.61 1.23-2.31 2.17-4.24 2.89-2.64-.79-3.06-3.71-3-5.88 4.12.07 7.39.87 7.39 2.4z" fill="#283593" data-original="#283593"/><path d="M23 53c-1-2-6-2-8-2s-4-1-4-3v-4.59c.006.205.057.407.15.59.61 1.23 2.31 2.17 4.24 2.89 1.199.436 2.42.807 3.66 1.11A5.274 5.274 0 0 1 23 53zM35 43.41V48c0 2-2 3-4 3s-7 0-8 2a5.274 5.274 0 0 1 3.95-5 35.193 35.193 0 0 0 3.66-1.11c1.93-.72 3.63-1.66 4.24-2.89.093-.183.144-.385.15-.59z" fill="#3f51b5" data-original="#3f51b5"/><path d="M34.85 44A5.884 5.884 0 0 1 32 46.308V48c0 2-2 3-4 3-1.563-.03-3.126.07-4.673.3A5.749 5.749 0 0 0 23 53c1-2 6-2 8-2s4-1 4-3v-4.59a1.391 1.391 0 0 1-.15.59z" fill="#283593" data-original="#283593"/><g fill="#000"><path d="M1 60h44a1 1 0 0 0 1-1c0-9.065-4.92-11.411-10-12.292v-3.3c0-2.108-2.9-2.931-5.677-3.236 2.366-1.09 4.539-2.662 5.572-4.727a16.78 16.78 0 0 0 .749-1.778c.053.017.1.041.157.058.194.06.397.09.6.09a2 2 0 0 0 1.884-1.315 18.775 18.775 0 0 0 1.038-5.768C42.148 23.345 43 17.773 43 15c0-8.973-8.79-15-17-15-7.3 0-11.433 3.167-12.459 4.064C11.784 4.406 4 6.515 4 17a13.159 13.159 0 0 0 .955 4.936c-.343.404-.591.88-.727 1.392a6.537 6.537 0 0 0 1.013 5.488 5.073 5.073 0 0 0 3.1 2.078 31.273 31.273 0 0 0 1.762 4.553c1.033 2.065 3.206 3.637 5.572 4.727C12.9 40.479 10 41.3 10 43.41v3.3C4.92 47.589 0 49.935 0 59a1 1 0 0 0 1 1zm23.75-9.344a3.98 3.98 0 0 1 2.443-1.686 35.764 35.764 0 0 0 3.766-1.143A13.841 13.841 0 0 0 34 46.315V48c0 1.582-1.962 2-3 2a22.362 22.362 0 0 0-6.25.656zM15 50c-1.038 0-3-.418-3-2v-1.684c.948.627 1.97 1.135 3.042 1.512 1.23.449 2.485.83 3.758 1.141a3.983 3.983 0 0 1 2.445 1.687A22.355 22.355 0 0 0 15 50zm4.39-8.523c1.179.315 2.39.49 3.61.523a15.619 15.619 0 0 0 3.611-.523c.015 2.576.721 4.163 1.653 5.129-.5.146-1.014.288-1.559.425A5.957 5.957 0 0 0 23 49.684a5.956 5.956 0 0 0-3.708-2.654 41.104 41.104 0 0 1-1.554-.423c.933-.968 1.64-2.556 1.652-5.13zM34 43.41a.423.423 0 0 1-.046.146c-.269.542-1.086 1.364-3.343 2.257-1.2-.505-1.871-1.756-1.986-3.768 4.055.2 5.375 1.102 5.375 1.365zM14.047 6a6.631 6.631 0 0 1 4.246 1.7 1 1 0 0 0 1.414-1.414A8.424 8.424 0 0 0 16.5 4.422 18.491 18.491 0 0 1 26 2c7.1 0 15 5.339 15 13a30.3 30.3 0 0 1-1.065 7.15 22.2 22.2 0 0 0-1-3.5 1 1 0 1 0-1.874.7 18.077 18.077 0 0 1 .325 12.464c-4.02-1.237-6.507-5.29-6.531-5.331A1 1 0 0 0 30 26h-.04a1 1 0 0 0-.854.552c-.271.54-.512 1.094-.721 1.66C20.979 21.934 20 15.915 19.99 15.858a1 1 0 0 0-1.936-.182 5.456 5.456 0 0 1-2.622 2.724 4.893 4.893 0 0 0-.537-1.848 1 1 0 0 0-1.138-.523c-.169.042-3.833 1.025-6.1 6.843A11.294 11.294 0 0 1 6 17c0-9.661 7.342-10.9 8.047-11zM6.861 27.644a4.525 4.525 0 0 1-.768-3.5c.291.458.615.895.969 1.307.146.952.352 1.959.6 2.98a3.572 3.572 0 0 1-.801-.787zm5.039 6.909a36.028 36.028 0 0 1-2.87-9.485c1.271-4.279 3.273-6.036 4.393-6.71.08.316.035.65-.125.935a1 1 0 0 0 .95 1.677 8.555 8.555 0 0 0 4.4-2.564c.936 2.536 3.184 6.87 8.446 11.332.507.43 1.193.583 1.835.408a1.988 1.988 0 0 0 1.3-1.129 15.559 15.559 0 0 0 4.571 3.864c-.2.571-.433 1.13-.7 1.672C32.343 38.077 25.845 40 23 40s-9.343-1.923-11.1-5.447zm5.483 7.492c-.113 2.006-.786 3.261-1.988 3.768-2.258-.894-3.075-1.714-3.337-2.243a.47.47 0 0 1-.058-.16c0-.263 1.32-1.166 5.378-1.365zm-7.3 6.677C10.492 50.875 12.755 52 15 52c.741 0 1.4.017 2 .045V55a1 1 0 0 0 0 2h2a1 1 0 0 0 0-2v-2.786c2.115.28 2.882.785 3.105 1.233a1 1 0 0 0 1.79 0c.223-.448.99-.953 3.105-1.233V55a1 1 0 0 0 0 2h2a1 1 0 0 0 0-2v-2.955c.6-.028 1.259-.045 2-.045 2.245 0 4.508-1.125 4.925-3.278 4.041.716 7.733 2.348 8.053 9.278H37v-2a1 1 0 0 0-2 0v2H11v-2a1 1 0 0 0-2 0v2H2.022c.32-6.93 4.012-8.562 8.053-9.278z" data-original="#000000"/><path d="M18.7 24.713A1 1 0 0 0 18 23h-4a1 1 0 0 0-.7 1.713c-.196.4-.298.84-.3 1.287a3 3 0 0 0 6 0 2.96 2.96 0 0 0-.3-1.287zM16 27a1 1 0 1 1 0-2 1 1 0 0 1 0 2zM22 31h2a1 1 0 0 0 0-2h-2a1 1 0 0 0 0 2zM27 34a1 1 0 0 0-1-1h-6a1 1 0 0 0 0 2h6a1 1 0 0 0 1-1zM25 37a1 1 0 0 0-1-1h-2a1 1 0 0 0 0 2h2a1 1 0 0 0 1-1z" data-original="#000000"/></g></g></svg>